<svg width="41" height="51" viewBox="0 0 41 51" fill="none" xmlns="http://www.w3.org/2000/svg">
<path d="M37.5622 12.5315C37.5176 12.0033 37.0727 11.5986 36.5426 11.6038H28.7932V8.6671C28.7932 3.88028 24.9125 0 20.1261 0C15.3393 0 11.459 3.88028 11.459 8.6671V11.6038H3.70957C3.18182 11.6058 2.7413 12.0065 2.68991 12.5315L0.0184878 43.2439C-0.102995 44.6678 0.378157 46.0778 1.34564 47.1306C2.31272 48.1829 3.67691 48.7815 5.10643 48.7803H35.1557C36.5852 48.7815 37.9494 48.1829 38.9165 47.1306C39.884 46.0778 40.3655 44.6678 40.244 43.2439L37.5622 12.5315ZM13.4983 8.6671C13.4983 5.00669 16.4657 2.03932 20.1261 2.03932C23.7865 2.03932 26.7539 5.00669 26.7539 8.6671V11.6038H13.4983V8.6671ZM37.4093 45.752C36.8326 46.3869 36.0132 46.7466 35.1557 46.741H5.09607C4.23852 46.7414 3.4204 46.3817 2.84047 45.75C2.26094 45.1179 1.97297 44.2715 2.04745 43.4172L4.63722 13.6431H11.459V20.0056C9.81916 20.5103 8.79512 22.1382 9.05043 23.8349C9.30535 25.5313 10.7631 26.786 12.4786 26.786C14.1941 26.786 15.6515 25.5313 15.9068 23.8349C16.1618 22.1382 15.1377 20.5103 13.4983 20.0056V13.6328H26.7539V20.0056C25.114 20.5103 24.09 22.1382 24.3453 23.8349C24.6002 25.5313 26.058 26.786 27.7735 26.786C29.489 26.786 30.9464 25.5313 31.2017 23.8349C31.4566 22.1382 30.4326 20.5103 28.7932 20.0056V13.6328H35.6046L38.1944 43.4068C38.278 44.2648 37.9924 45.1175 37.4093 45.752V45.752ZM12.3257 21.9024C12.4273 21.9159 12.53 21.9159 12.6316 21.9024C13.3856 21.9836 13.9448 22.6408 13.9042 23.398C13.8631 24.1556 13.237 24.749 12.4786 24.749C11.7199 24.749 11.0937 24.1556 11.0531 23.398C11.0125 22.6408 11.5713 21.9836 12.3257 21.9024ZM27.6206 21.9024C27.7221 21.9159 27.8249 21.9159 27.9265 21.9024C28.6805 21.9836 29.2397 22.6408 29.1991 23.398C29.158 24.1556 28.5319 24.749 27.7735 24.749C27.0148 24.749 26.3886 24.1556 26.348 23.398C26.3074 22.6408 26.8662 21.9836 27.6206 21.9024V21.9024Z" fill="black"/>
<path d="M20.4412 41.8577C19.6012 41.8577 18.8452 41.7137 18.1732 41.4257C17.5012 41.1257 16.9732 40.7057 16.5892 40.1657C16.2052 39.6257 16.0132 38.9957 16.0132 38.2757H18.2092C18.2572 38.8157 18.4672 39.2597 18.8392 39.6077C19.2232 39.9557 19.7572 40.1297 20.4412 40.1297C21.1492 40.1297 21.7012 39.9617 22.0972 39.6257C22.4932 39.2777 22.6912 38.8337 22.6912 38.2937C22.6912 37.8737 22.5652 37.5317 22.3132 37.2677C22.0732 37.0037 21.7672 36.7997 21.3952 36.6557C21.0352 36.5117 20.5312 36.3557 19.8832 36.1877C19.0672 35.9717 18.4012 35.7557 17.8852 35.5397C17.3812 35.3117 16.9492 34.9637 16.5892 34.4957C16.2292 34.0277 16.0492 33.4037 16.0492 32.6237C16.0492 31.9037 16.2292 31.2737 16.5892 30.7337C16.9492 30.1937 17.4532 29.7797 18.1012 29.4917C18.7492 29.2037 19.4992 29.0597 20.3512 29.0597C21.5632 29.0597 22.5532 29.3657 23.3212 29.9777C24.1012 30.5777 24.5332 31.4057 24.6172 32.4617H22.3492C22.3132 32.0057 22.0972 31.6157 21.7012 31.2917C21.3052 30.9677 20.7832 30.8057 20.1352 30.8057C19.5472 30.8057 19.0672 30.9557 18.6952 31.2557C18.3232 31.5557 18.1372 31.9877 18.1372 32.5517C18.1372 32.9357 18.2512 33.2537 18.4792 33.5057C18.7192 33.7457 19.0192 33.9377 19.3792 34.0817C19.7392 34.2257 20.2312 34.3817 20.8552 34.5497C21.6832 34.7777 22.3552 35.0057 22.8712 35.2337C23.3992 35.4617 23.8432 35.8157 24.2032 36.2957C24.5752 36.7637 24.7612 37.3937 24.7612 38.1857C24.7612 38.8217 24.5872 39.4217 24.2392 39.9857C23.9032 40.5497 23.4052 41.0057 22.7452 41.3537C22.0972 41.6897 21.3292 41.8577 20.4412 41.8577Z" fill="#367CFF"/>
</svg>
