<svg width="48" height="48" viewBox="0 0 48 48" fill="none" xmlns="http://www.w3.org/2000/svg">
<path d="M34.996 43.8388C34.75 43.8448 34.506 43.7828 34.292 43.6588L24.016 38.2468L14.968 43.1188C13.492 43.9188 11.644 43.3708 10.844 41.8928C10.834 41.8748 10.824 41.8568 10.814 41.8368C10.5 41.2188 10.39 40.5208 10.498 39.8368L12.258 29.4488L4.90199 22.0008C3.69999 20.7608 3.69999 18.7888 4.90199 17.5468C5.36999 17.0548 5.98999 16.7368 6.66199 16.6448L16.748 15.1128L21.234 5.76676C21.932 4.24676 23.73 3.57876 25.252 4.27676C25.912 4.57876 26.44 5.10876 26.742 5.76676L31.248 15.1448L41.368 16.6948C42.186 16.8168 42.92 17.2688 43.4 17.9428C44.296 19.2308 44.16 20.9708 43.076 22.1048L35.754 29.4648L36.774 35.0628C36.916 35.9028 36.362 36.7048 35.524 36.8628C34.7 37.0108 33.912 36.4628 33.764 35.6368L32.726 30.0388C32.552 29.0128 32.878 27.9648 33.606 27.2228L40.946 19.8108L30.826 18.2408C29.8 18.0748 28.93 17.3948 28.52 16.4408L24.016 7.10276L19.456 16.5888C19.046 17.5448 18.176 18.2228 17.15 18.3888L7.06399 19.9208L14.35 27.3208C15.076 28.0508 15.402 29.0848 15.23 30.0988L13.47 40.4868L22.516 35.6348C23.412 35.1308 24.506 35.1308 25.402 35.6348L35.664 41.0468C36.29 41.3888 36.608 42.1108 36.438 42.8048C36.282 43.4988 35.67 43.9928 34.96 44.0048L34.996 43.8388Z" fill="black"/>
</svg>
