<svg width="48" height="48" viewBox="0 0 48 48" fill="none" xmlns="http://www.w3.org/2000/svg">
<path d="M35.712 6C40.28 6 43.998 9.68204 43.998 14.2103L44 19.5649C44 19.9573 43.842 20.3358 43.56 20.6152C43.28 20.8946 42.898 21.0512 42.5 21.0512C40.858 21.0512 39.522 22.375 39.522 24.002C39.522 25.629 40.858 26.9528 42.5 26.9528C43.328 26.9528 44 27.6186 44 28.4391V33.7897C44 38.318 40.284 42 35.716 42H24.79C23.962 42 23.29 41.3341 23.29 40.5137C23.29 39.6933 23.962 39.0274 24.79 39.0274H35.716C38.63 39.0274 41 36.6771 41 33.7897V29.7371C38.428 29.0772 36.522 26.7566 36.522 24.002C36.522 21.2474 38.426 18.9268 41 18.2669L40.998 14.2103C40.998 11.3229 38.626 8.97259 35.712 8.97259H12.288C9.374 8.97259 7.004 11.3229 7.004 14.2103L7.002 18.4254C9.604 19.0516 11.478 21.2771 11.478 24.002C11.478 26.7566 9.574 29.0772 7 29.7371V33.7897C7 36.6771 9.372 39.0274 12.286 39.0274H15.866C16.694 39.0274 17.366 39.6933 17.366 40.5137C17.366 41.3341 16.694 42 15.866 42H12.286C7.716 42 4 38.318 4 33.7897V28.4391C4 27.6186 4.672 26.9528 5.5 26.9528C7.142 26.9528 8.478 25.629 8.478 24.002C8.478 22.4166 7.198 21.2236 5.5 21.2236C5.102 21.2236 4.72 21.067 4.44 20.7876C4.158 20.5082 4 20.1297 4 19.7373L4.004 14.2103C4.004 9.68204 7.72 6 12.288 6H35.712ZM24.0665 16C24.8124 16 25.4776 16.4236 25.8082 17.1086L27.3827 20.2011C27.7626 20.951 27.4831 21.8751 26.7569 22.2642C26.4085 22.4547 26.007 22.4892 25.6311 22.3716C25.2513 22.25 24.9423 21.9845 24.7573 21.6238L24.096 20.3268L23.2005 22.1953C22.984 22.6452 22.5687 22.9593 22.0846 23.0303L20.148 23.3201L21.5493 24.7306C21.8996 25.0792 22.059 25.5838 21.9763 26.0803L21.6457 28.0684L23.3816 27.1301C23.8145 26.897 24.3302 26.897 24.7592 27.1301L26.4951 28.0684L26.1645 26.0803C26.0818 25.5838 26.2412 25.0792 26.5896 24.7286L29.4827 21.8265C29.7641 21.5468 30.144 21.3644 30.5297 21.3928C30.9273 21.3968 31.2993 21.559 31.5787 21.8548C31.8563 22.1467 32.0039 22.5317 32 22.9391C31.994 23.3464 31.8366 23.7274 31.5512 24.0111L29.217 26.3559L29.7681 29.6633C29.894 30.4172 29.5988 31.1671 28.9966 31.6149C28.3924 32.0649 27.613 32.1196 26.9537 31.7649L24.0684 30.2085L21.1832 31.7669C20.9057 31.921 20.5927 32 20.2798 32C19.8705 32 19.4768 31.8662 19.1423 31.6149C18.542 31.1671 18.2448 30.4172 18.3708 29.6633L18.9238 26.3559L16.5876 24.0111C16.0543 23.4782 15.8673 22.6939 16.0956 21.9643C16.3279 21.2367 16.9281 20.7159 17.6642 20.6085L20.888 20.1241L22.3326 17.1126C22.6593 16.4276 23.3245 16.002 24.0665 16Z" fill="black"/>
</svg>
