<svg width="48" height="48" viewBox="0 0 48 48" fill="none" xmlns="http://www.w3.org/2000/svg">
<path d="M23.9995 3.99951C35.0275 3.99951 43.9995 12.9695 43.9995 23.9995C43.9995 35.0275 35.0275 43.9995 23.9995 43.9995C17.7455 43.9995 11.9655 41.1535 8.14551 36.1955C7.65551 35.5575 7.77551 34.6435 8.41151 34.1555C9.04751 33.6635 9.95751 33.7855 10.4495 34.4195C13.7155 38.6595 18.6535 41.0915 23.9995 41.0915C33.4235 41.0915 41.0915 33.4255 41.0915 23.9995C41.0915 14.5755 33.4235 6.90751 23.9995 6.90751C14.5755 6.90751 6.90951 14.5755 6.90951 23.9995C6.90951 24.8755 6.97351 25.7455 7.10351 26.5975C7.22351 27.3895 6.67951 28.1315 5.88551 28.2535C5.08751 28.3855 4.34951 27.8315 4.22951 27.0375C4.07751 26.0415 3.99951 25.0195 3.99951 23.9995C3.99951 12.9695 12.9715 3.99951 23.9995 3.99951ZM23.3217 14.2183C24.1237 14.2183 24.7757 14.8703 24.7757 15.6743V24.5663L31.6237 28.6503C32.3137 29.0623 32.5397 29.9543 32.1277 30.6443C31.8577 31.0983 31.3737 31.3523 30.8797 31.3523C30.6257 31.3523 30.3677 31.2863 30.1357 31.1483L22.5757 26.6403C22.1377 26.3763 21.8677 25.9023 21.8677 25.3903V15.6743C21.8677 14.8703 22.5197 14.2183 23.3217 14.2183Z" fill="black"/>
</svg>
